<svg xmlns="http://www.w3.org/2000/svg" viewBox="0 0 137.71 209.02"><g id="Layer_2" data-name="Layer 2"><g id="képek"><path d="M103.94,110V93.51H0V110H30.63a4.86,4.86,0,0,1,4.86,4.86v32.5L15.75,202.82,33.17,209l15.51-43.6A3.5,3.5,0,0,1,52,163.1h0a3.5,3.5,0,0,1,3.29,2.32L70.77,209l17.42-6.2L68.45,147.35v-32.5A4.86,4.86,0,0,1,73.31,110Z" fill="#e1cfe6"/><circle cx="51.97" cy="73.22" r="15.02" transform="translate(-35.49 93.54) rotate(-67.72)" fill="#e1cfe6"/><path d="M49.23,0V25.56l-10,11.35H65.37l-10-11.34V6.11H131.6v195h6.11V0Z" fill="#1d1d1b"/><path d="M73.31,110h30.63V93.51H0V110H30.63a4.86,4.86,0,0,1,4.86,4.86v32.5L20.1,190.61l17.41,6.2,11.17-31.39a3.49,3.49,0,0,1,6.58,0l11.17,31.39,17.41-6.2L68.45,147.35v-32.5A4.86,4.86,0,0,1,73.31,110Z"/></g></g></svg>