<svg xmlns="http://www.w3.org/2000/svg" viewBox="0 0 137.4 209.02"><g id="Layer_2" data-name="Layer 2"><g id="képek"><circle cx="51.97" cy="73.22" r="15.02" transform="translate(-6.94 5.46) rotate(-5.64)" fill="#e1cfe6"/><path d="M48.91,0V25.56l-10,11.35H65.06L55,25.57V6.11h76.26v195h6.11V0Z" fill="#1d1d1b"/><polygon points="70.77 209.02 93.1 201.08 84.93 193.68 67.52 199.87 70.77 209.02"/><polygon points="33.17 209.02 10.84 201.08 19.01 193.68 36.42 199.87 33.17 209.02"/><path d="M73.31,110h30.63V93.51H0V110H30.63a4.86,4.86,0,0,1,4.86,4.86v32.5L20.1,190.61l17.41,6.2,11.17-31.39a3.49,3.49,0,0,1,6.58,0l11.17,31.39,17.41-6.2L68.45,147.35v-32.5A4.86,4.86,0,0,1,73.31,110Z"/></g></g></svg>