<svg xmlns="http://www.w3.org/2000/svg" viewBox="0 0 137.4 209.02"><g id="Layer_2" data-name="Layer 2"><g id="képek"><path d="M103.94,110V93.51H0V110H30.63a4.86,4.86,0,0,1,4.86,4.86v32.5L15.75,202.82,33.17,209l15.51-43.6A3.5,3.5,0,0,1,52,163.1h0a3.5,3.5,0,0,1,3.29,2.32L70.77,209l17.42-6.2L68.45,147.35v-32.5A4.86,4.86,0,0,1,73.31,110Z" fill="#e1cfe6"/><circle cx="51.97" cy="73.22" r="15.02" transform="translate(-35.49 93.54) rotate(-67.72)" fill="#e1cfe6"/><path d="M48.91,0V25.56l-10,11.35H65.06L55,25.57V6.11h76.25v195h6.12V0Z" fill="#1d1d1b"/><path d="M68.45,147.35l15.39,43.26-17.41,6.2L55.26,165.42a3.49,3.49,0,0,0-6.58,0L37.51,196.81l-17.41-6.2,15.39-43.26Z"/></g></g></svg>